<?xml version="1.0" encoding="UTF-8" standalone="no"?>
<svg
   xmlns:dc="http://purl.org/dc/elements/1.1/"
   xmlns:cc="http://creativecommons.org/ns#"
   xmlns:rdf="http://www.w3.org/1999/02/22-rdf-syntax-ns#"
   xmlns:svg="http://www.w3.org/2000/svg"
   xmlns="http://www.w3.org/2000/svg"
   xmlns:sodipodi="http://sodipodi.sourceforge.net/DTD/sodipodi-0.dtd"
   xmlns:inkscape="http://www.inkscape.org/namespaces/inkscape"
   height="2000"
   width="2000"
   inkscape:version="1.0 (4035a4fb49, 2020-05-01)"
   sodipodi:docname="CNES 2005-2017 Logo.svg"
   xml:space="preserve"
   viewBox="0 0 2000 2000"
   y="0px"
   x="0px"
   id="Calque_1"
   version="1.1"><metadata
   id="metadata86"><rdf:RDF><cc:Work
       rdf:about=""><dc:format>image/svg+xml</dc:format><dc:type
         rdf:resource="http://purl.org/dc/dcmitype/StillImage" /><dc:title></dc:title></cc:Work></rdf:RDF></metadata><defs
   id="defs84">





































</defs><sodipodi:namedview
   fit-margin-bottom="0"
   fit-margin-right="0"
   fit-margin-left="0"
   fit-margin-top="0"
   inkscape:current-layer="Calque_1"
   inkscape:window-maximized="1"
   inkscape:window-y="-11"
   inkscape:window-x="-11"
   inkscape:cy="1341.2135"
   inkscape:cx="369.68224"
   inkscape:zoom="0.18166932"
   showgrid="false"
   id="namedview82"
   inkscape:window-height="986"
   inkscape:window-width="1920"
   inkscape:pageshadow="2"
   inkscape:pageopacity="0"
   guidetolerance="10"
   gridtolerance="10"
   objecttolerance="10"
   borderopacity="1"
   bordercolor="#666666"
   pagecolor="#ffffff" />
<style
   id="style2"
   type="text/css">
	.st0{fill:#004F91;}
	.st1{fill:#FFFFFF;}
</style>


<g
   id="g554"><path
     style="opacity:1;fill:#004f91;fill-opacity:1;stroke-width:2.78333"
     id="path6"
     d="m 1198.7301,851.74493 c -109.1068,-1.67 -230.73848,-96.02502 -230.73848,-251.05669 V 86.606572 h -36.1833 V 360.48657 c -157.25833,34.235 -274.43667,164.495 -274.43667,320.36167 0,181.75169 158.92837,328.98996 355.70995,328.98996 149.465,0 276.9418,-85.72667 329.5468,-206.80163 -33.6783,29.22496 -91.2933,49.54336 -143.8983,48.70836"
     class="st1" /><path
     style="opacity:1;fill:#004f91;fill-opacity:1;stroke-width:2.78333"
     id="path8"
     d="m 1019.4676,351.85824 c 15.03,-1.94834 197.3383,0.55666 303.6617,161.71166 35.905,54.275 0.835,122.18834 -107.1584,125.80667 -38.41,1.11334 -176.185,-33.67833 -196.5033,-287.51833"
     class="st1" /><g
     id="g475"
     transform="translate(-0.1234)"><path
       class="st1"
       d="m 786.50257,1108.0899 c -91.85,0 -184.81333,37.8533 -184.81333,174.515 v 185.0917 h 82.10833 v -183.7001 c 0,-92.1283 59.285,-113.2816 102.705,-113.2816 43.42,0 102.705,21.4316 102.705,113.2816 v 183.7001 h 82.1083 v -184.8134 c 0.2784,-136.6617 -92.685,-174.7933 -184.8133,-174.7933"
       id="path10"
       style="opacity:1;fill:#004f91;fill-opacity:1;stroke-width:2.78333" /><path
       class="st1"
       d="m 206.4559,1292.9032 c 0,86.84 37.85333,174.7934 174.515,174.7934 h 167 v -61.2334 H 402.12423 c -92.12833,0 -110.22,-70.975 -110.22,-113.56 0,-42.3067 18.09167,-114.395 110.22,-114.395 H 547.9709 v -60.3983 h -167 c -136.66167,0 -174.515,87.9533 -174.515,174.7933"
       id="path12"
       style="opacity:1;fill:#004f91;fill-opacity:1;stroke-width:2.78333" /><path
       class="st1"
       d="m 1306.4293,1268.4099 h -198.1734 c 0,-29.7817 1.9484,-106.6017 98.2517,-106.6017 113.8383,-0.2783 99.9217,106.6017 99.9217,106.6017 m -198.4517,52.8833 h 286.1267 c 0,-9.7417 0,-25.885 0,-25.885 0,-155.5883 -102.1484,-187.04 -194.8334,-187.04 -130.5383,0 -178.69,93.2417 -178.69,179.8033 v 5.01 c 0,86.8401 38.1317,174.7934 174.515,174.7934 h 188.71 v -61.2333 h -167.2783 c -76.82,-0.5567 -102.1483,-44.5334 -108.55,-85.4484"
       id="path14"
       style="opacity:1;fill:#004f91;fill-opacity:1;stroke-width:2.78333" /><path
       class="st1"
       d="m 1650.1709,1265.6265 h -46.2033 c -43.1417,0 -70.14,-13.6383 -70.14,-44.5333 0,-30.06 21.1533,-42.0283 65.13,-42.585 h 181.4733 v -60.3983 h -180.6383 c -73.48,0 -156.7017,12.2466 -156.7017,102.705 0,98.8083 110.7767,97.4166 143.62,97.4166 h 46.2034 c 43.42,0 70.14,13.6384 70.14,44.5334 0,29.7817 -21.1534,42.0283 -65.13,42.585 h -181.4734 v 60.3983 h 180.6384 c 73.48,0 156.7016,-12.2466 156.7016,-102.705 -0.2783,-99.0867 -111.055,-97.4167 -143.62,-97.4167"
       id="path16"
       style="opacity:1;fill:#004f91;fill-opacity:1;stroke-width:2.78333" /></g><g
     id="g511"
     transform="translate(-7.96458)"><path
       d="m 269.00074,1584.8522 q -13.72773,0 -19.80509,8.7229 -6.00587,8.7228 -6.00587,28.6709 0,17.3026 5.79136,24.3809 5.79139,7.0784 20.0196,7.0784 h 36.32122 v 18.3036 h -37.39369 q -12.36925,0 -19.4476,-2.0734 -7.07835,-2.145 -13.29874,-7.1499 -8.07932,-6.4349 -12.15473,-16.7307 -4.00394,-10.3672 -4.00394,-24.7384 0,-27.8845 12.08326,-41.1117 12.08326,-13.2987 37.46522,-13.2987 h 36.75022 v 17.9461 z"
       style="font-style:normal;font-variant:normal;font-weight:normal;font-stretch:normal;font-size:52.6092px;line-height:1.25;font-family:'HandelGothic BT';-inkscape-font-specification:'HandelGothic BT';text-align:start;letter-spacing:4.15px;text-anchor:start;opacity:1;fill:#004f91;fill-opacity:1;stroke-width:3.66072"
       id="path237" /><path
       d="m 373.96567,1585.2097 q -12.01175,0 -18.16061,6.0059 -6.07738,6.0059 -6.72086,18.3751 l 61.20272,0.072 v 18.3036 h -61.34573 q 0.0715,13.7277 5.79139,19.7336 5.79137,6.0058 19.23309,6.0058 h 36.32125 v 18.3036 h -37.39373 q -12.36924,0 -19.44759,-2.0734 -7.07835,-2.145 -13.29871,-7.1499 -8.07932,-6.4348 -12.15476,-16.7306 -4.00391,-10.3673 -4.00391,-24.7385 0,-27.8844 12.08326,-41.1116 12.08322,-13.2988 37.46519,-13.2988 h 36.75025 v 18.3036 z"
       style="font-style:normal;font-variant:normal;font-weight:normal;font-stretch:normal;font-size:52.6092px;line-height:1.25;font-family:'HandelGothic BT';-inkscape-font-specification:'HandelGothic BT';text-align:start;letter-spacing:4.15px;text-anchor:start;opacity:1;fill:#004f91;fill-opacity:1;stroke-width:3.66072"
       id="path239" /><path
       d="m 438.45804,1566.9061 h 27.95591 l 43.0421,75.5024 -1.07247,-75.5024 h 22.59354 v 105.1028 h -25.66798 l -45.18706,-79.5063 1.001,79.5063 h -22.66504 z"
       style="font-style:normal;font-variant:normal;font-weight:normal;font-stretch:normal;font-size:52.6092px;line-height:1.25;font-family:'HandelGothic BT';-inkscape-font-specification:'HandelGothic BT';text-align:start;letter-spacing:4.15px;text-anchor:start;opacity:1;fill:#004f91;fill-opacity:1;stroke-width:3.66072"
       id="path241" /><path
       d="m 586.10842,1585.3527 h -33.96179 v -18.3036 h 90.94608 v 18.3036 h -34.10477 v 86.6562 h -22.87952 z"
       style="font-style:normal;font-variant:normal;font-weight:normal;font-stretch:normal;font-size:52.6092px;line-height:1.25;font-family:'HandelGothic BT';-inkscape-font-specification:'HandelGothic BT';text-align:start;letter-spacing:4.15px;text-anchor:start;opacity:1;fill:#004f91;fill-opacity:1;stroke-width:3.66072"
       id="path243" /><path
       sodipodi:nodetypes="sccssscscsssccccccccc"
       d="m 714.55931,1585.6387 h -27.09795 v 26.4545 h 27.09795 c 7.34051,0 12.44072,-1.001 15.30067,-3.003 2.85994,-2.0019 4.2899,-5.4339 4.2899,-10.2958 0,-4.8142 -1.40614,-8.1985 -4.21842,-10.1527 -2.7646,-2.002 -7.88863,-3.003 -15.37215,-3.003 z m -49.191,-18.7326 h 54.41039 c 12.67905,0 21.97386,2.5501 27.8844,7.6504 5.91055,5.1002 8.86581,13.0842 8.86581,23.952 0,8.0555 -1.83513,14.6333 -5.50538,19.7335 -2.61057,3.6755 -5.8234,7.1284 -10.11727,8.9225 16.67144,7.1718 19.88984,28.4285 19.78969,44.8444 h -26.67689 c 0,-21.4291 -3.86218,-41.3261 -21.96857,-41.3261 h -24.58913 v 41.3261 h -22.09305 z"
       style="font-style:normal;font-variant:normal;font-weight:normal;font-stretch:normal;font-size:52.6092px;line-height:1.25;font-family:'HandelGothic BT';-inkscape-font-specification:'HandelGothic BT';text-align:start;letter-spacing:4.15px;text-anchor:start;opacity:1;fill:#004f91;fill-opacity:1;stroke-width:3.66072"
       id="path245" /><path
       d="m 835.82427,1585.2097 q -12.0118,0 -18.16064,6.0059 -6.07735,6.0059 -6.72086,18.3751 l 61.2027,0.072 v 18.3036 h -61.34568 q 0.0715,13.7277 5.79137,19.7336 5.79141,6.0058 19.23311,6.0058 h 36.3212 v 18.3036 h -37.3937 q -12.3692,0 -19.44757,-2.0734 -7.07835,-2.145 -13.29874,-7.1499 -8.07932,-6.4348 -12.15473,-16.7306 -4.00394,-10.3673 -4.00394,-24.7385 0,-27.8844 12.08326,-41.1116 12.08326,-13.2988 37.46522,-13.2988 h 36.7502 v 18.3036 z"
       style="font-style:normal;font-variant:normal;font-weight:normal;font-stretch:normal;font-size:52.6092px;line-height:1.25;font-family:'HandelGothic BT';-inkscape-font-specification:'HandelGothic BT';text-align:start;letter-spacing:4.15px;text-anchor:start;opacity:1;fill:#004f91;fill-opacity:1;stroke-width:3.66072"
       id="path247" /><path
       d="m 963.99687,1566.9061 h 27.9559 l 43.04213,75.5024 -1.0724,-75.5024 h 22.5935 v 105.1028 h -25.668 l -45.18703,-79.5063 1.001,79.5063 h -22.6651 z"
       style="font-style:normal;font-variant:normal;font-weight:normal;font-stretch:normal;font-size:52.6092px;line-height:1.25;font-family:'HandelGothic BT';-inkscape-font-specification:'HandelGothic BT';text-align:start;letter-spacing:4.15px;text-anchor:start;opacity:1;fill:#004f91;fill-opacity:1;stroke-width:3.66072"
       id="path249" /><path
       d="m 1133.6935,1587.7837 -15.3722,40.4681 h 31.3163 z m -10.8678,-20.8776 h 23.4515 l 44.8296,105.1028 h -24.5955 l -9.6523,-25.0245 h -45.6875 l -9.3664,25.0245 h -23.4515 z"
       style="font-style:normal;font-variant:normal;font-weight:normal;font-stretch:normal;font-size:52.6092px;line-height:1.25;font-family:'HandelGothic BT';-inkscape-font-specification:'HandelGothic BT';text-align:start;letter-spacing:4.15px;text-anchor:start;opacity:1;fill:#004f91;fill-opacity:1;stroke-width:3.66072"
       id="path251" /><path
       d="m 1223.576,1585.3527 h -33.9618 v -18.3036 h 90.9461 v 18.3036 h -34.1048 v 86.6562 h -22.8795 z"
       style="font-style:normal;font-variant:normal;font-weight:normal;font-stretch:normal;font-size:52.6092px;line-height:1.25;font-family:'HandelGothic BT';-inkscape-font-specification:'HandelGothic BT';text-align:start;letter-spacing:4.15px;text-anchor:start;opacity:1;fill:#004f91;fill-opacity:1;stroke-width:3.66072"
       id="path253" /><path
       d="m 1326.2159,1672.0089 h -23.094 v -105.1028 h 23.094 z"
       style="font-style:normal;font-variant:normal;font-weight:normal;font-stretch:normal;font-size:52.6092px;line-height:1.25;font-family:'HandelGothic BT';-inkscape-font-specification:'HandelGothic BT';text-align:start;letter-spacing:4.15px;text-anchor:start;opacity:1;fill:#004f91;fill-opacity:1;stroke-width:3.66072"
       id="path255" /><path
       d="m 1351.7275,1618.3851 q 0,-27.098 12.9412,-40.3252 13.0128,-13.2272 39.5387,-13.2272 26.7405,0 39.5387,13.3702 12.8697,13.3702 12.8697,41.2546 0,27.8844 -12.8697,41.3262 -12.7982,13.4417 -39.5387,13.4417 -27.0264,0 -39.7531,-13.5133 -12.7268,-13.5132 -12.7268,-42.327 z m 52.4799,-35.5348 q -14.2282,0 -21.3065,8.8658 -7.0069,8.8658 -7.0069,26.8119 0,19.4476 6.7924,28.5279 6.8638,9.0089 21.521,9.0089 14.4427,0 21.3781,-8.9374 7.0068,-9.0088 7.0068,-27.6699 0,-18.7326 -7.0068,-27.6699 -6.9354,-8.9373 -21.3781,-8.9373 z"
       style="font-style:normal;font-variant:normal;font-weight:normal;font-stretch:normal;font-size:52.6092px;line-height:1.25;font-family:'HandelGothic BT';-inkscape-font-specification:'HandelGothic BT';text-align:start;letter-spacing:4.15px;text-anchor:start;opacity:1;fill:#004f91;fill-opacity:1;stroke-width:3.66072"
       id="path257" /><path
       d="m 1481.888,1566.9061 h 27.9559 l 43.0421,75.5024 -1.0724,-75.5024 h 22.5935 v 105.1028 h -25.668 l -45.187,-79.5063 1.0009,79.5063 h -22.665 z"
       style="font-style:normal;font-variant:normal;font-weight:normal;font-stretch:normal;font-size:52.6092px;line-height:1.25;font-family:'HandelGothic BT';-inkscape-font-specification:'HandelGothic BT';text-align:start;letter-spacing:4.15px;text-anchor:start;opacity:1;fill:#004f91;fill-opacity:1;stroke-width:3.66072"
       id="path259" /><path
       d="m 1649.5122,1587.7837 -15.3722,40.4681 h 31.3163 z m -10.8678,-20.8776 h 23.4515 l 44.8296,105.1028 H 1682.33 l -9.6523,-25.0245 h -45.6876 l -9.3663,25.0245 h -23.4515 z"
       style="font-style:normal;font-variant:normal;font-weight:normal;font-stretch:normal;font-size:52.6092px;line-height:1.25;font-family:'HandelGothic BT';-inkscape-font-specification:'HandelGothic BT';text-align:start;letter-spacing:4.15px;text-anchor:start;opacity:1;fill:#004f91;fill-opacity:1;stroke-width:3.66072"
       id="path261" /><path
       d="m 1768.95,1672.0089 q -14.7286,0 -21.8785,-2.4309 -7.1499,-2.5025 -12.7982,-8.5799 -5.2194,-5.4338 -7.3644,-12.2977 -2.145,-6.8638 -2.145,-19.3046 v -62.4897 h 22.0931 v 61.7747 q 0,9.2233 0.7865,13.0127 0.858,3.718 2.8599,6.0059 3.146,3.7179 7.7219,5.2909 4.5759,1.573 12.6552,1.573 h 26.0254 v 17.4456 z"
       style="font-style:normal;font-variant:normal;font-weight:normal;font-stretch:normal;font-size:52.6092px;line-height:1.25;font-family:'HandelGothic BT';-inkscape-font-specification:'HandelGothic BT';text-align:start;letter-spacing:4.15px;text-anchor:start;opacity:1;fill:#004f91;fill-opacity:1;stroke-width:3.66072"
       id="path263" /></g><g
     id="g495"
     transform="translate(-7.179265)"><path
       d="m 265.93303,1741.8305 h -22.74245 v 67.6416 h 22.74245 q 13.02289,0 17.97797,-7.2726 4.95506,-7.2725 4.95506,-26.5482 0,-19.2051 -4.95506,-26.4776 -4.95508,-7.3432 -17.97797,-7.3432 z m -42.3721,-18.0754 h 42.75325 q 22.55188,0 33.28784,13.133 10.73592,13.0623 10.73592,40.599 0,14.192 -3.62097,24.43 -3.55747,10.1674 -10.73596,16.5221 -5.52681,4.9425 -11.81592,7.0607 -6.28911,2.0476 -17.27918,2.0476 h -43.32498 z"
       style="font-style:normal;font-variant:normal;font-weight:normal;font-stretch:normal;font-size:50.3295px;line-height:1.25;font-family:'HandelGothic BT';-inkscape-font-specification:'HandelGothic BT';text-align:start;letter-spacing:1.29px;text-anchor:start;opacity:1;fill:#004f91;fill-opacity:1;stroke-width:3.42901"
       id="path305" /><path
       sodipodi:nodetypes="cccccccc"
       d="m 326.96304,1723.501 h 20.67575 v 20.5497 l -10.89219,21.4332 h -11.30701 l 9.54299,-21.4332 h -8.01954 z"
       style="font-style:normal;font-variant:normal;font-weight:normal;font-stretch:normal;font-size:50.3295px;line-height:1.25;font-family:'HandelGothic BT';-inkscape-font-specification:'HandelGothic BT';text-align:start;letter-spacing:1.29px;text-anchor:start;opacity:1;fill:#004f91;fill-opacity:1;stroke-width:4.60444"
       id="path307" /><path
       id="path359"
       d="m 411.88569,1696.0183 h 18.14324 l -21.52588,20.123 h -8.85634 z"
       style="font-style:normal;font-variant:normal;font-weight:normal;font-stretch:normal;font-size:50.3295px;line-height:1.25;font-family:'HandelGothic BT';-inkscape-font-specification:'HandelGothic BT';text-align:start;letter-spacing:1.29px;text-anchor:start;opacity:1;fill:#004f91;fill-opacity:1;stroke-width:3.37393" /><path
       id="path309"
       d="m 407.33391,1741.8305 q -10.33243,0 -15.6216,5.931 -5.22774,5.931 -5.78123,18.146 l 52.64611,0.071 v 18.0754 h -52.76913 q 0.0615,13.5566 4.98169,19.4876 4.98172,5.931 16.54416,5.931 h 31.24328 v 18.0753 H 406.4114 q -10.63993,0 -16.72869,-2.0475 -6.08877,-2.1182 -11.43948,-7.0607 -6.94978,-6.3547 -10.45542,-16.5221 -3.44412,-10.238 -3.44412,-24.43 0,-27.5368 10.39391,-40.599 10.39394,-13.133 32.22732,-13.133 h 31.61227 v 18.0754 z"
       style="font-style:normal;font-variant:normal;font-weight:normal;font-stretch:normal;font-size:50.3295px;line-height:1.25;font-family:'HandelGothic BT';-inkscape-font-specification:'HandelGothic BT';text-align:start;letter-spacing:1.29px;text-anchor:start;opacity:1;fill:#004f91;fill-opacity:1;stroke-width:3.37393" /><path
       d="m 482.65292,1741.9718 h -31.47469 v -18.0755 h 84.28593 v 18.0755 h -31.60723 v 85.5757 h -21.20401 z"
       style="font-style:normal;font-variant:normal;font-weight:normal;font-stretch:normal;font-size:50.3295px;line-height:1.25;font-family:'HandelGothic BT';-inkscape-font-specification:'HandelGothic BT';text-align:start;letter-spacing:1.29px;text-anchor:start;opacity:1;fill:#004f91;fill-opacity:1;stroke-width:3.50207"
       id="path311" /><path
       d="m 570.27041,1723.7551 v 62.1342 q 0,14.5451 4.9034,20.3349 4.96967,5.7191 17.02949,5.7191 12.05977,0 16.96317,-5.7191 4.90345,-5.7192 4.90345,-20.3349 v -62.1342 h 20.47512 v 62.6991 q 0,11.0147 -1.39156,17.5811 -1.3252,6.5665 -4.30704,10.3793 -5.83108,7.3431 -14.71028,10.8028 -8.81289,3.4598 -21.93286,3.4598 -13.11999,0 -22.06543,-3.4598 -8.87919,-3.4597 -14.71028,-10.8028 -2.91554,-3.7422 -4.2408,-10.0968 -1.32525,-6.3547 -1.32525,-17.8636 v -62.6991 z"
       style="font-style:normal;font-variant:normal;font-weight:normal;font-stretch:normal;font-size:50.3295px;line-height:1.25;font-family:'HandelGothic BT';-inkscape-font-specification:'HandelGothic BT';text-align:start;letter-spacing:1.29px;text-anchor:start;opacity:1;fill:#004f91;fill-opacity:1;stroke-width:3.50207"
       id="path313" /><path
       sodipodi:nodetypes="cscsssscscsccscscsscscscc"
       d="m 937.45987,1742.2542 h -45.5973 c -5.4336,0 -9.4314,1.0826 -11.9936,3.2479 -2.5179,2.1653 -3.7769,5.6015 -3.7769,10.3086 0,3.7658 1.0823,6.59 3.2469,8.4729 2.1645,1.8828 5.3893,2.8242 9.6743,2.8242 h 22.0742 c 11.2204,0 19.194,2.2595 23.9207,6.7783 4.7709,4.5189 7.1564,12.0503 7.1564,22.5943 0,10.6852 -2.7389,18.5461 -8.2166,23.5827 -5.4777,4.9896 -14.0918,7.4844 -25.8423,7.4844 h -49.9857 v -18.4991 h 46.7388 c 5.8311,0 9.9394,-0.8943 12.3248,-2.683 2.3855,-1.8358 3.5782,-4.8484 3.5782,-9.0377 0,-4.3306 -1.1044,-7.4137 -3.3131,-9.2495 -2.1646,-1.8359 -5.8974,-2.7537 -11.1984,-2.7537 h -19.1586 c -11.2205,0 -19.437,-2.3771 -24.6497,-7.1313 -5.1684,-4.8013 -7.7527,-12.3562 -7.7527,-22.6649 0,-11.0147 2.7168,-19.0639 8.1503,-24.1476 5.4777,-5.0837 14.1581,-7.6256 26.0412,-7.6256 h 48.5791 z"
       style="font-style:normal;font-variant:normal;font-weight:normal;font-stretch:normal;font-size:50.3295px;line-height:1.25;font-family:'HandelGothic BT';-inkscape-font-specification:'HandelGothic BT';text-align:start;letter-spacing:1.29px;text-anchor:start;opacity:1;fill:#004f91;fill-opacity:1;stroke-width:3.50207"
       id="path319" /><path
       d="m 1109.514,1723.7551 h 43.7241 q 11.0777,0 17.6591,1.271 6.5814,1.2003 10.4912,3.8834 6.5163,4.5188 9.8396,11.8619 3.3885,7.2726 3.3885,16.8045 0,9.3201 -2.7369,16.0278 -2.7368,6.6371 -8.3408,11.0147 -4.6917,3.6009 -10.817,5.1543 -6.0602,1.4828 -18.6366,1.4828 h -24.436 v 36.292 h -20.1352 z m 43.4635,18.4991 h -23.3283 v 30.6434 h 24.5664 q 9.1228,0 13.5538,-3.7421 4.4311,-3.8128 4.4311,-11.5796 0,-8.3316 -4.3659,-11.7914 -4.3008,-3.5303 -14.8571,-3.5303 z"
       style="font-style:normal;font-variant:normal;font-weight:normal;font-stretch:normal;font-size:50.3295px;line-height:1.25;font-family:'HandelGothic BT';-inkscape-font-specification:'HandelGothic BT';text-align:start;letter-spacing:1.29px;text-anchor:start;opacity:1;fill:#004f91;fill-opacity:1;stroke-width:3.47288"
       id="path323" /><path
       d="m 1242.6487,1744.3724 -13.8197,39.9636 h 28.1537 z m -9.7702,-20.6173 h 21.0831 l 40.3022,103.7924 h -22.1116 l -8.6775,-24.7125 h -41.0735 l -8.4204,24.7125 h -21.0831 z"
       style="font-style:normal;font-variant:normal;font-weight:normal;font-stretch:normal;font-size:50.3295px;line-height:1.25;font-family:'HandelGothic BT';-inkscape-font-specification:'HandelGothic BT';text-align:start;letter-spacing:1.29px;text-anchor:start;opacity:1;fill:#004f91;fill-opacity:1;stroke-width:3.44922"
       id="path325" /><path
       d="m 1320.1354,1741.9718 h -31.4747 v -18.0755 h 84.2859 v 18.0755 h -31.6072 v 85.5757 h -21.204 z"
       style="font-style:normal;font-variant:normal;font-weight:normal;font-stretch:normal;font-size:50.3295px;line-height:1.25;font-family:'HandelGothic BT';-inkscape-font-specification:'HandelGothic BT';text-align:start;letter-spacing:1.29px;text-anchor:start;opacity:1;fill:#004f91;fill-opacity:1;stroke-width:3.50207"
       id="path327" /><path
       d="m 1408.0322,1827.5475 h -21.4028 v -103.7924 h 21.4028 z"
       style="font-style:normal;font-variant:normal;font-weight:normal;font-stretch:normal;font-size:50.3295px;line-height:1.25;font-family:'HandelGothic BT';-inkscape-font-specification:'HandelGothic BT';text-align:start;letter-spacing:1.29px;text-anchor:start;opacity:1;fill:#004f91;fill-opacity:1;stroke-width:3.50207"
       id="path329" /><path
       d="m 1578.1248,1827.5475 q -13.6501,0 -20.2764,-2.4007 -6.6262,-2.4712 -11.861,-8.4728 -4.8371,-5.3661 -6.825,-12.1444 -1.9879,-6.7783 -1.9879,-19.0639 v -61.7106 h 20.4751 v 61.0045 q 0,9.1083 0.7289,12.8505 0.7951,3.6716 2.6505,5.931 2.9156,3.6716 7.1564,5.2249 4.2408,1.5533 11.7284,1.5533 h 24.1196 v 17.2282 z"
       style="font-style:normal;font-variant:normal;font-weight:normal;font-stretch:normal;font-size:50.3295px;line-height:1.25;font-family:'HandelGothic BT';-inkscape-font-specification:'HandelGothic BT';text-align:start;letter-spacing:1.29px;text-anchor:start;opacity:1;fill:#004f91;fill-opacity:1;stroke-width:3.50207"
       id="path333" /><path
       id="path317-9"
       style="font-style:normal;font-variant:normal;font-weight:normal;font-stretch:normal;font-size:50.3295px;line-height:1.25;font-family:'HandelGothic BT';-inkscape-font-specification:'HandelGothic BT';text-align:start;letter-spacing:1.29px;text-anchor:start;opacity:1;fill:#004f91;fill-opacity:1;stroke-width:3.37393"
       d="m 805.46489,1741.8305 q -10.33243,0 -15.62165,5.931 -5.22771,5.931 -5.78123,18.146 l 52.64616,0.071 v 18.0754 h -52.76913 q 0.0615,13.5566 4.98169,19.4876 4.9817,5.931 16.54416,5.931 h 31.24328 v 18.0753 h -32.16578 q -10.63996,0 -16.7287,-2.0475 -6.08877,-2.1182 -11.43947,-7.0607 -6.94979,-6.3547 -10.45546,-16.5221 -3.44412,-10.238 -3.44412,-24.43 0,-27.5368 10.39394,-40.599 10.39391,-13.133 32.2273,-13.133 h 31.61229 v 18.0754 z" /><path
       id="path319-7"
       style="font-style:normal;font-variant:normal;font-weight:normal;font-stretch:normal;font-size:50.3295px;line-height:1.25;font-family:'HandelGothic BT';-inkscape-font-specification:'HandelGothic BT';text-align:start;letter-spacing:1.29px;text-anchor:start;opacity:1;fill:#004f91;fill-opacity:1;stroke-width:3.50207"
       d="m 1085.4022,1742.2542 h -45.5974 c -5.4336,0 -9.4314,1.0826 -11.9935,3.2479 -2.518,2.1653 -3.777,5.6015 -3.777,10.3086 0,3.7658 1.0823,6.59 3.2469,8.4729 2.1645,1.8828 5.3893,2.8242 9.6743,2.8242 h 22.0742 c 11.2204,0 19.194,2.2595 23.9208,6.7783 4.7708,4.5189 7.1563,12.0503 7.1563,22.5943 0,10.6852 -2.7389,18.5461 -8.2165,23.5827 -5.4778,4.9896 -14.0919,7.4844 -25.8424,7.4844 h -49.9857 v -18.4991 h 46.7388 c 5.8311,0 9.9394,-0.8943 12.3249,-2.683 2.3854,-1.8358 3.5781,-4.8484 3.5781,-9.0377 0,-4.3306 -1.1044,-7.4137 -3.3131,-9.2495 -2.1646,-1.8359 -5.8974,-2.7537 -11.1984,-2.7537 h -19.1586 c -11.2205,0 -19.437,-2.3771 -24.6497,-7.1313 -5.1684,-4.8013 -7.7527,-12.3562 -7.7527,-22.6649 0,-11.0147 2.7168,-19.0639 8.1503,-24.1476 5.4777,-5.0837 14.1581,-7.6256 26.0412,-7.6256 h 48.5792 z"
       sodipodi:nodetypes="cscsssscscsccscscsscscscc" /><path
       id="path305-9"
       style="font-style:normal;font-variant:normal;font-weight:normal;font-stretch:normal;font-size:50.3295px;line-height:1.25;font-family:'HandelGothic BT';-inkscape-font-specification:'HandelGothic BT';text-align:start;letter-spacing:1.29px;text-anchor:start;opacity:1;fill:#004f91;fill-opacity:1;stroke-width:3.42901"
       d="m 699.78072,1741.8305 h -22.74245 v 67.6416 h 22.74245 q 13.02289,0 17.97797,-7.2726 4.95506,-7.2725 4.95506,-26.5482 0,-19.2051 -4.95506,-26.4776 -4.95508,-7.3432 -17.97797,-7.3432 z m -42.3721,-18.0754 h 42.75325 q 22.55188,0 33.28784,13.133 10.73592,13.0623 10.73592,40.599 0,14.192 -3.62097,24.43 -3.55746,10.1674 -10.73596,16.5221 -5.52681,4.9425 -11.81592,7.0607 -6.28911,2.0476 -17.27918,2.0476 h -43.32498 z" /><path
       id="path325-0"
       style="font-style:normal;font-variant:normal;font-weight:normal;font-stretch:normal;font-size:50.3295px;line-height:1.25;font-family:'HandelGothic BT';-inkscape-font-specification:'HandelGothic BT';text-align:start;letter-spacing:1.29px;text-anchor:start;opacity:1;fill:#004f91;fill-opacity:1;stroke-width:3.44922"
       d="m 1474.2147,1744.3724 -13.8197,39.9636 h 28.1536 z m -9.7702,-20.6173 h 21.0831 l 40.3022,103.7924 h -22.1116 l -8.6775,-24.7125 h -41.0735 l -8.4204,24.7125 h -21.0831 z" /><path
       d="m 1652.6616,1741.8305 q -10.3324,0 -15.6217,5.931 -5.2277,5.931 -5.7812,18.146 l 52.6462,0.071 v 18.0754 h -52.7692 q 0.062,13.5566 4.9817,19.4876 4.9817,5.931 16.5442,5.931 h 31.2433 v 18.0753 h -32.1658 q -10.64,0 -16.7287,-2.0475 -6.0888,-2.1182 -11.4395,-7.0607 -6.9498,-6.3547 -10.4554,-16.5221 -3.4442,-10.238 -3.4442,-24.43 0,-27.5368 10.394,-40.599 10.3939,-13.133 32.2273,-13.133 h 31.6123 v 18.0754 z"
       style="font-style:normal;font-variant:normal;font-weight:normal;font-stretch:normal;font-size:50.3295px;line-height:1.25;font-family:'HandelGothic BT';-inkscape-font-specification:'HandelGothic BT';text-align:start;letter-spacing:1.29px;text-anchor:start;opacity:1;fill:#004f91;fill-opacity:1;stroke-width:3.37393"
       id="path317-9-7" /><path
       id="path319-79"
       style="font-style:normal;font-variant:normal;font-weight:normal;font-stretch:normal;font-size:50.3295px;line-height:1.25;font-family:'HandelGothic BT';-inkscape-font-specification:'HandelGothic BT';text-align:start;letter-spacing:1.29px;text-anchor:start;opacity:1;fill:#004f91;fill-opacity:1;stroke-width:3.50207"
       d="m 1786.0929,1742.2542 h -45.5974 c -5.4335,0 -9.4313,1.0826 -11.9935,3.2479 -2.518,2.1653 -3.7769,5.6015 -3.7769,10.3086 0,3.7658 1.0823,6.59 3.2468,8.4729 2.1646,1.8828 5.3894,2.8242 9.6744,2.8242 h 22.0741 c 11.2205,0 19.1941,2.2595 23.9208,6.7783 4.7709,4.5189 7.1564,12.0503 7.1564,22.5943 0,10.6852 -2.7389,18.5461 -8.2166,23.5827 -5.4777,4.9896 -14.0918,7.4844 -25.8424,7.4844 h -49.9856 v -18.4991 h 46.7388 c 5.8311,0 9.9394,-0.8943 12.3248,-2.683 2.3854,-1.8358 3.5782,-4.8484 3.5782,-9.0377 0,-4.3306 -1.1044,-7.4137 -3.3131,-9.2495 -2.1646,-1.8359 -5.8974,-2.7537 -11.1984,-2.7537 h -19.1587 c -11.2204,0 -19.437,-2.3771 -24.6496,-7.1313 -5.1685,-4.8013 -7.7527,-12.3562 -7.7527,-22.6649 0,-11.0147 2.7167,-19.0639 8.1503,-24.1476 5.4776,-5.0837 14.158,-7.6256 26.0412,-7.6256 h 48.5791 z"
       sodipodi:nodetypes="cscsssscscsccscscsscscscc" /></g></g></svg>
