<svg xmlns="http://www.w3.org/2000/svg" width="2500" height="2500" viewBox="0 0 192.756 192.756"><path fill-rule="evenodd" clip-rule="evenodd" fill="#fff" d="M0 0h192.756v192.756H0V0z"/><path d="M93.355 168.592c41.762 0 75.618-33.855 75.618-75.618 0-41.761-33.855-75.617-75.618-75.617-41.762 0-75.617 33.855-75.617 75.617 0 41.762 33.855 75.618 75.617 75.618z" fill-rule="evenodd" clip-rule="evenodd" fill="#33348e"/><path d="M92.574 121.01c-1.562-.346-5.989-4.34-5.989-4.34l-1.389 1.303s3.212 3.732 5.121 6.336l2.257-3.299zM71.915 136.375a.89.89 0 1 0 0-1.78.89.89 0 0 0 0 1.78zM72.74 143.344a.676.676 0 1 0-.001-1.351.676.676 0 0 0 .001 1.351zM104.053 136.729a.613.613 0 1 0 0-1.226.613.613 0 0 0 0 1.226zM125.254 123.783a.43.43 0 1 0 0-.86.43.43 0 0 0 0 .86zM125.861 132.205a.43.43 0 1 0 0-.86.43.43 0 0 0 0 .86zM129.834 148.137a.89.89 0 1 0-.891-.891c0 .492.399.891.891.891zM130.701 120.238a.92.92 0 1 0 0-1.84.92.92 0 0 0 0 1.84zM130.961 125.398a.46.46 0 1 0 0 0zM139.576 115.59a.46.46 0 1 0 .001-.921.46.46 0 0 0-.001.921zM147.996 125.24a.583.583 0 1 0 0 0zM151.779 123.449a.768.768 0 1 0 0-1.536.768.768 0 0 0 0 1.536zM140.965 131.533a.735.735 0 1 0 .001-1.47.735.735 0 0 0-.001 1.47zM148.713 135.059a.397.397 0 1 0 0-.796.399.399 0 0 0 0 .796zM99.496 36.368a.921.921 0 1 0-.002-1.842.921.921 0 0 0 .002 1.842zM95.851 26.746a.52.52 0 1 0 0-1.041.52.52 0 0 0 0 1.041zM94.96 38.64a.306.306 0 1 0 .001-.613.306.306 0 0 0-.001.613zM80.574 40.049a.675.675 0 1 0 0-1.35.675.675 0 0 0 0 1.35zM79.336 38.488a.308.308 0 0 0 0-.614.308.308 0 0 0 0 .614zM109.195 52.28a.645.645 0 1 0 0-1.29.645.645 0 0 0 0 1.29zM117.053 89.979s11.373 3.494 7.551 13.281c0 0-4.947 9.982-19.617 5.121l-2.994 2.691-.109-9.484 4.275 3.234s9.809 2.67 9.982-2.951c0 0-.5-2.082-8.029-4.383 0 0-8.768-2.692-6.77-10.417 0 0 1.387-12.021 18.791-7.16l3.039-1.649-.043 9.2-3.756-3.688s-7.855-2.538-9.027 1.28c-1.278 4.162 3.842 3.884 6.707 4.925zM134.107 79.325h13.108l10.59 25.497 3.472 3.387h-17.881l2.864-2.865-1.475-3.819h-9.635l-1.129 3.993 1.997 2.691h-8.506l2.908-2.908 7.029-22.395-3.342-3.581z" fill-rule="evenodd" clip-rule="evenodd" fill="#fff"/><path fill-rule="evenodd" clip-rule="evenodd" fill="#33348e" d="M143.482 97.531l-4.08-9.895-3.125 9.895h7.205z"/><path d="M90.958 34.361a.921.921 0 1 0 0-1.842.921.921 0 0 0 0 1.842zM67.413 54.808a.644.644 0 1 0 0 0zM69.366 58.063a.645.645 0 1 0-.002-1.29.645.645 0 0 0 .002 1.29zM75.007 65.429a.307.307 0 1 0 .001-.615.307.307 0 0 0-.001.615zM82.168 40.583a.307.307 0 1 0 0 0zM81.301 44.27a.52.52 0 1 0 0-1.041.52.52 0 0 0 0 1.041zM92.151 40.581a.52.52 0 1 0 0-1.041.52.52 0 0 0 0 1.041zM98.77 44.486a.52.52 0 1 0-.521-.521.52.52 0 0 0 .521.521zM143.156 135.928a1.147 1.147 0 1 0 .001-2.295 1.147 1.147 0 0 0-.001 2.295z" fill-rule="evenodd" clip-rule="evenodd" fill="#fff"/><path fill-rule="evenodd" clip-rule="evenodd" fill="#fff" d="M142.475 133.836l.693-1.953.629 1.931-1.322.022zM142.475 135.648l.693 1.954.629-1.932-1.322-.022zM142.225 135.484l-1.954-.693 1.93-.629.024 1.322zM144.068 135.484l1.953-.693-1.931-.629-.022 1.322zM141.086 120a.736.736 0 1 0-.004-1.472.736.736 0 0 0 .004 1.472zM117.324 150.055a.735.735 0 0 0 0-1.472.737.737 0 1 0 0 1.472zM89.981 142.027a.737.737 0 1 0-.002-1.474.737.737 0 0 0 .002 1.474zM64.267 142.244a.737.737 0 1 0-.002-1.474.737.737 0 0 0 .002 1.474zM67.196 125.398a.492.492 0 1 0-.002-.984.492.492 0 0 0 .002.984zM58.407 131.475a.492.492 0 1 0-.002-.984.492.492 0 0 0 .002.984zM69.041 111.4a.49.49 0 1 0 .001-.98.49.49 0 0 0-.001.98zM38.66 125.615a.492.492 0 1 0-.002-.984.492.492 0 0 0 .002.984zM46.798 126.375a.492.492 0 1 0-.002-.984.492.492 0 0 0 .002.984zM45.279 130.354a.89.89 0 1 0 0-1.78.89.89 0 0 0 0 1.78zM48.1 133.717a.89.89 0 1 0 .002-1.778.89.89 0 0 0-.002 1.778z"/><path d="M161.168 50.246c13.607-11.218 24.812-20.875 28.754-28.188 0 0-8.637 28.906-49 59.112 0 0-61.628 42.056-78.468 53.86 0 0-15.537 10.98-28.731 27.992l-.304-2.777s9.879-14.537 32.377-30.424c19.791-13.973 27.169-18.662 27.169-18.662s47.008-29.421 56.725-42.228c0 0-33.723 19.356-91.879 30.597 0 0-26.908 6.771-44.485 17.75h-2.431s15.342-13.041 50.93-23.154c-.001 0 60.218-17.88 99.343-43.878z" fill-rule="evenodd" clip-rule="evenodd" fill="#cc2229"/><path fill-rule="evenodd" clip-rule="evenodd" fill="#fff" d="M31.162 79.433h12.152L53.73 96.967V81.603l-1.909-2.17h7.638l-1.91 2.951v22.829l2.778 3.037H48.175L37.781 90.261v15.059l2.235 2.975h-9.201l2.604-3.17v-22.22l-2.257-3.472zM71.655 79.389h13.432l9.614 25.498 3.471 3.384H80.943l2.864-2.863-1.475-3.82h-9.636l-.585 3.994 1.996 2.689h-9.049l3.233-2.906 6.706-22.395-3.342-3.581z"/><path fill-rule="evenodd" clip-rule="evenodd" fill="#33348e" d="M81.029 97.596l-4.08-9.895-3.124 9.895h7.204z"/><path fill-rule="evenodd" clip-rule="evenodd" fill="#cc2229" d="M76.472 89.373l1.031-.38 2.279 5.588-5.426 1.356 2.116-6.564z"/><path d="M101.645 91.325s-3.037-8.246 6.076-11.284c0 0 4.34-3.472 13.453 0l1.998-1.78v9.2s-4.168-4.382-7.205-4.816c-3.039-.434-6.076.435-5.643 4.774l-8.679 3.906z" fill-rule="evenodd" clip-rule="evenodd" fill="#fff"/><path d="M108.508 134.701c4.467 2.639 8.771 4.293 12.547 4.803 3.594.484 6.701-.066 8.994-1.793.299-.225.586-.469.859-.73 10.799-10.299-2.076-44.301-22.164-65.363l-.016-.017c-.004-.006-1.861-2.154-3.125-3.418l.676-.675c1.197 1.198 2.977 3.248 3.154 3.453l.002.002-.002-.002.002.002c20.393 21.382 33.281 56.072 22.129 66.707-.295.281-.609.549-.945.801-2.504 1.887-5.85 2.496-9.689 1.977-3.906-.527-8.332-2.223-12.906-4.926l.484-.821zm.935-63.73l.006.007-.006-.007z" fill="#fff"/><path d="M107.752 70.607c-.168-.201-.316-.375-.447-.53h.002l-.453-.528c-9.689-11.238-18.096-18.064-25.189-21.63-8.262-4.153-14.701-3.858-19.277-.971-3.958 2.498-5.459 9.728-2.795 20.814 2.25 9.363 7.477 21.407 16.702 35.613l-.015-.023c.024.033 8.468 11.693 9.392 12.387l-.648.865c-1.071-.803-9.597-12.582-9.621-12.617l-.015-.021c-9.3-14.323-14.575-26.485-16.85-35.952-2.785-11.589-1.07-19.239 3.274-21.98 4.884-3.082 11.689-3.431 20.336.916 7.212 3.625 15.734 10.537 25.525 21.893l.457.533h.002c.17.199.322.379.451.534l-.831.697z" fill="#fff"/><path d="M90.794 124.865c2.11 1.811 4.429 2.566 5.18 1.691.75-.875-.354-3.051-2.463-4.859-2.111-1.811-4.429-2.566-5.179-1.691-.751.875.352 3.051 2.462 4.859zM110.609 36.658a1.436 1.436 0 1 0 0-2.872 1.436 1.436 0 0 0 0 2.872z" fill-rule="evenodd" clip-rule="evenodd" fill="#fff"/><path fill-rule="evenodd" clip-rule="evenodd" fill="#fff" d="M109.754 34.044l.869-5.045.787 5.018-1.656.027zM109.754 36.309l.869 5.045.787-5.019-1.656-.026zM109.443 36.105l-5.261-.868 5.234-.786.027 1.654zM111.748 36.105l5.481-.868-5.454-.786-.027 1.654zM75.387 56.941a1.436 1.436 0 1 0-.001-2.871 1.436 1.436 0 0 0 .001 2.871z"/><path fill-rule="evenodd" clip-rule="evenodd" fill="#fff" d="M74.533 54.327l.868-5.045.787 5.017-1.655.028zM74.533 56.591l.868 5.045.787-5.017-1.655-.028zM74.221 56.388l-5.263-.868 5.235-.787.028 1.655zM76.527 56.388l5.479-.868-5.452-.787-.027 1.655zM67.426 152.32a1.436 1.436 0 1 0-.002-2.872 1.436 1.436 0 0 0 .002 2.872z"/><path fill-rule="evenodd" clip-rule="evenodd" fill="#fff" d="M66.572 149.705l.868-5.045.786 5.018-1.654.027zM66.572 151.971l.868 5.045.786-5.018-1.654-.027zM66.26 151.768l-5.262-.87 5.234-.785.028 1.655zM68.565 151.768l5.479-.87-5.452-.785-.027 1.655zM150.104 119.77a1.436 1.436 0 0 0 0-2.87 1.435 1.435 0 0 0 0 2.87z"/><path fill-rule="evenodd" clip-rule="evenodd" fill="#fff" d="M149.25 117.154l.867-5.045.787 5.02-1.654.025zM149.25 119.42l.867 5.045.787-5.018-1.654-.027zM148.938 119.217l-5.262-.867 5.234-.788.028 1.655zM151.244 119.217l5.479-.867-5.453-.788-.026 1.655z"/></svg>