<?xml version="1.0" encoding="utf-8"?>
<!-- Generator: Adobe Illustrator 15.0.1, SVG Export Plug-In  -->
<!DOCTYPE svg PUBLIC "-//W3C//DTD SVG 1.1//EN" "http://www.w3.org/Graphics/SVG/1.1/DTD/svg11.dtd" [
	<!ENTITY ns_flows "http://ns.adobe.com/Flows/1.0/">
]>
<svg version="1.1"
	 xmlns="http://www.w3.org/2000/svg" xmlns:xlink="http://www.w3.org/1999/xlink" xmlns:a="http://ns.adobe.com/AdobeSVGViewerExtensions/3.0/"
	 x="0px" y="0px" width="287px" height="65px" viewBox="0 0 287 65" overflow="visible" enable-background="new 0 0 287 65"
	 xml:space="preserve">
<defs>
</defs>
<path fill="#002A3A" d="M76.122,27.407c-1.154-1.104-2.65-1.813-4.317-1.813c-1.542,0-2.622,0.638-2.622,1.69
	c0,1.08,0.76,1.521,2.28,1.815l2.696,0.539c3.089,0.613,5.026,1.839,5.026,4.78c0,3.457-3.063,5.369-7.012,5.369
	c-3.85,0-6.497-2.059-7.527-3.48l2.574-2.207c1.029,1.373,2.746,2.599,5.051,2.599c1.938,0,3.065-0.76,3.065-1.986
	c0-1.152-0.981-1.47-2.503-1.739l-2.155-0.417c-3.041-0.589-5.346-1.692-5.346-4.953c0-2.99,2.771-5.075,6.424-5.075
	c2.942,0,5.295,1.104,6.718,2.623L76.122,27.407z"/>
<path fill="#002A3A" d="M89.806,34.983c-0.246-1.177-0.54-2.722-0.786-3.972h-0.024c-0.27,1.177-0.514,2.746-0.809,4.021
	l-0.979,4.462h-4.464l-2.941-11.67h3.679l0.93,5.051c0.222,1.201,0.417,2.378,0.663,3.579h0.024c0.271-1.152,0.49-2.23,0.834-3.652
	l1.226-4.978h3.825l1.25,5.026c0.393,1.545,0.538,2.402,0.809,3.604h0.025c0.245-1.176,0.392-1.985,0.711-3.678l0.956-4.952h3.53
	l-3.089,11.67h-4.413L89.806,34.983z"/>
<path fill="#002A3A" d="M103.638,26.329h-3.604v-3.506h3.604V26.329z M103.638,39.494h-3.604v-11.67h3.604V39.494z"/>
<path fill="#002A3A" d="M114.377,31.379c-0.858-0.784-2.011-1.274-3.163-1.274c-0.809,0-1.521,0.27-1.521,0.858
	c0,0.612,0.541,0.784,1.741,1.029l1.839,0.393c1.888,0.392,3.604,1.152,3.604,3.383c0,2.722-2.379,4.021-5.149,4.021
	c-2.673,0-4.928-1.176-5.982-2.622l2.255-1.815c0.713,0.98,2.109,1.79,3.728,1.79c1.202,0,1.815-0.393,1.815-1.029
	c0-0.662-0.713-0.784-1.496-0.933l-1.838-0.366c-1.178-0.222-2.184-0.614-2.895-1.227c-0.636-0.54-1.005-1.3-1.005-2.28
	c0-2.77,2.674-3.775,4.977-3.775c2.182,0,3.924,0.809,5.1,1.937L114.377,31.379z"/>
<path fill="#002A3A" d="M126.737,31.379c-0.858-0.784-2.011-1.274-3.163-1.274c-0.809,0-1.521,0.27-1.521,0.858
	c0,0.612,0.541,0.784,1.741,1.029l1.838,0.393c1.888,0.392,3.604,1.152,3.604,3.383c0,2.722-2.379,4.021-5.148,4.021
	c-2.673,0-4.928-1.176-5.982-2.622l2.255-1.815c0.712,0.98,2.108,1.79,3.728,1.79c1.202,0,1.814-0.393,1.814-1.029
	c0-0.662-0.712-0.784-1.496-0.933l-1.838-0.366c-1.177-0.222-2.184-0.614-2.894-1.227c-0.637-0.54-1.005-1.3-1.005-2.28
	c0-2.77,2.673-3.775,4.977-3.775c2.182,0,3.923,0.809,5.099,1.937L126.737,31.379z"/>
<path fill="#002A3A" d="M145.742,29.345c1.323,2.182,2.452,4.266,2.452,4.266h0.023c0,0-0.147-3.285-0.147-5.223v-5.564h3.654
	v16.671h-3.728l-3.947-6.423c-0.932-1.545-2.525-4.486-2.525-4.486h-0.023c0,0,0.171,2.771,0.171,5.442v5.467h-3.678V22.823h3.751
	L145.742,29.345z"/>
<path fill="#002A3A" d="M164.918,36.577c0,0.735,0.1,0.98,0.612,0.98h0.171v2.06c-0.537,0.098-1.077,0.147-1.667,0.147
	c-1.029,0-1.984-0.196-2.229-1.055h-0.025c-0.538,0.589-1.396,1.078-3.284,1.078c-2.575,0-4.217-1.323-4.217-3.751
	c0-2.23,1.691-3.113,4.167-3.506l2.428-0.392c0.638-0.099,0.735-0.172,0.735-0.54v-0.195c0-0.883-0.491-1.373-1.717-1.373
	c-1.25,0-1.936,0.515-1.936,1.691l-3.312-0.024c-0.048-2.673,2.109-4.119,5.395-4.119c2.991,0,4.879,0.932,4.879,3.579V36.577z
	 M161.584,34.198c-0.271,0.099-0.49,0.221-1.74,0.466c-1.152,0.221-2.011,0.417-2.011,1.423c0,0.956,0.711,1.373,1.741,1.373
	c1.176,0,2.01-0.54,2.01-1.766V34.198z"/>
<path fill="#002A3A" d="M175.121,39.544c-0.49,0.098-1.301,0.195-2.157,0.195c-1.398,0-2.869-0.195-3.483-1.005
	c-0.44-0.588-0.488-1.226-0.488-2.403v-6.079h-2.257v-2.428h2.257v-3.972l3.578-0.711v4.683h2.551v2.428h-2.551v5.173
	c0,0.662,0.073,0.98,0.294,1.201c0.246,0.27,0.688,0.368,1.35,0.368c0.417,0,0.734-0.025,0.907-0.049V39.544z"/>
<path fill="#002A3A" d="M181.203,26.329h-3.605v-3.506h3.605V26.329z M181.203,39.494h-3.605v-11.67h3.605V39.494z"/>
<path fill="#002A3A" d="M189.712,27.53c3.677,0,6.202,2.23,6.202,6.179c0,3.946-2.525,6.079-6.202,6.079
	c-3.678,0-6.18-2.133-6.18-6.079C183.532,29.761,186.034,27.53,189.712,27.53z M189.712,37.067c1.643,0,2.574-1.274,2.574-3.407
	c0-2.183-0.907-3.434-2.574-3.434s-2.55,1.275-2.55,3.434C187.162,35.816,188.07,37.067,189.712,37.067z"/>
<path fill="#002A3A" d="M209.378,39.494h-3.58V33.61c0-1.789-0.074-3.04-1.838-3.04c-1.496,0-2.134,1.177-2.134,2.771v6.153h-3.579
	v-11.67h3.529v1.446c0.566-0.956,1.839-1.74,3.506-1.74c1.35,0,2.379,0.368,3.066,1.128c0.734,0.833,1.029,1.643,1.029,4.217V39.494
	z"/>
<path fill="#002A3A" d="M222.351,36.577c0,0.735,0.1,0.98,0.612,0.98h0.172v2.06c-0.538,0.098-1.079,0.147-1.667,0.147
	c-1.03,0-1.984-0.196-2.23-1.055h-0.024c-0.538,0.589-1.396,1.078-3.285,1.078c-2.575,0-4.217-1.323-4.217-3.751
	c0-2.23,1.691-3.113,4.167-3.506l2.427-0.392c0.637-0.099,0.736-0.172,0.736-0.54v-0.195c0-0.883-0.491-1.373-1.717-1.373
	c-1.25,0-1.938,0.515-1.938,1.691l-3.309-0.024c-0.05-2.673,2.108-4.119,5.393-4.119c2.992,0,4.88,0.932,4.88,3.579V36.577z
	 M219.017,34.198c-0.271,0.099-0.491,0.221-1.742,0.466c-1.15,0.221-2.009,0.417-2.009,1.423c0,0.956,0.709,1.373,1.742,1.373
	c1.175,0,2.009-0.54,2.009-1.766V34.198z"/>
<path fill="#002A3A" d="M229.293,39.494h-3.58V22.823h3.58V39.494z"/>
<path fill="#002A3A" d="M76.122,52.249c-1.154-1.103-2.65-1.813-4.317-1.813c-1.542,0-2.622,0.638-2.622,1.691
	c0,1.079,0.76,1.52,2.28,1.814l2.696,0.539c3.089,0.613,5.026,1.839,5.026,4.781c0,3.457-3.063,5.368-7.012,5.368
	c-3.85,0-6.497-2.059-7.527-3.48l2.574-2.207c1.029,1.373,2.746,2.599,5.051,2.599c1.938,0,3.065-0.76,3.065-1.985
	c0-1.152-0.981-1.471-2.503-1.74l-2.155-0.417c-3.041-0.589-5.346-1.692-5.346-4.953c0-2.99,2.771-5.075,6.424-5.075
	c2.942,0,5.295,1.104,6.718,2.624L76.122,52.249z"/>
<path fill="#002A3A" d="M92.232,61.443c-0.638,1.643-2.281,3.187-5.371,3.187c-3.676,0-6.177-2.133-6.177-6.079
	c0-3.948,2.501-6.179,6.177-6.179c3.238,0,4.905,1.74,5.493,3.628l-3.089,1.055c-0.344-1.274-1.154-1.986-2.404-1.986
	c-1.667,0-2.549,1.275-2.549,3.434c0,2.156,0.906,3.407,2.549,3.407c1.154,0,1.963-0.613,2.33-1.717L92.232,61.443z"/>
<path fill="#002A3A" d="M97.775,51.171h-3.604v-3.506h3.604V51.171z M97.775,64.336h-3.604v-11.67h3.604V64.336z"/>
<path fill="#002A3A" d="M111.752,61.86c-0.688,0.98-2.379,2.77-5.589,2.77c-3.434,0-6.057-2.255-6.057-6.177
	c0-3.654,2.502-6.081,5.982-6.081c3.851,0,5.81,2.771,5.81,6.325c0,0.245,0,0.515-0.024,0.736h-8.311
	c0.122,1.274,1.054,2.377,2.819,2.377c1.568,0,2.502-0.932,2.894-1.618L111.752,61.86z M103.563,57.129h4.88
	c-0.075-1.349-0.934-2.281-2.38-2.281C104.667,54.848,103.613,55.902,103.563,57.129z"/>
<path fill="#002A3A" d="M125.436,64.336h-3.578v-5.883c0-1.79-0.075-3.041-1.84-3.041c-1.496,0-2.132,1.177-2.132,2.771v6.153h-3.58
	v-11.67h3.53v1.446c0.562-0.955,1.838-1.74,3.505-1.74c1.35,0,2.38,0.368,3.065,1.128c0.735,0.833,1.029,1.643,1.029,4.217V64.336z"
	/>
<path fill="#002A3A" d="M139.219,61.443c-0.638,1.643-2.281,3.187-5.372,3.187c-3.676,0-6.177-2.133-6.177-6.079
	c0-3.948,2.501-6.179,6.177-6.179c3.238,0,4.905,1.74,5.493,3.628l-3.089,1.055c-0.344-1.274-1.153-1.986-2.404-1.986
	c-1.667,0-2.549,1.275-2.549,3.434c0,2.156,0.907,3.407,2.549,3.407c1.154,0,1.963-0.613,2.33-1.717L139.219,61.443z"/>
<path fill="#002A3A" d="M151.993,61.86c-0.686,0.98-2.377,2.77-5.59,2.77c-3.433,0-6.056-2.255-6.056-6.177
	c0-3.654,2.5-6.081,5.982-6.081c3.849,0,5.812,2.771,5.812,6.325c0,0.245,0,0.515-0.025,0.736h-8.312
	c0.122,1.274,1.054,2.377,2.819,2.377c1.568,0,2.5-0.932,2.893-1.618L151.993,61.86z M143.805,57.129h4.878
	c-0.071-1.349-0.93-2.281-2.376-2.281C144.907,54.848,143.853,55.902,143.805,57.129z"/>
<path fill="#002A3A" d="M164.626,50.925v3.286h6.789v3.31h-6.789v6.815h-3.703V47.665h10.812v3.26H164.626z"/>
<path fill="#002A3A" d="M178.676,52.372c3.678,0,6.203,2.23,6.203,6.179c0,3.946-2.525,6.079-6.203,6.079s-6.179-2.133-6.179-6.079
	C172.497,54.603,174.998,52.372,178.676,52.372z M178.676,61.909c1.644,0,2.573-1.274,2.573-3.407c0-2.183-0.906-3.434-2.573-3.434
	s-2.549,1.275-2.549,3.434C176.127,60.658,177.033,61.909,178.676,61.909z"/>
<path fill="#002A3A" d="M187.064,52.666h3.578v5.885c0,1.789,0.024,3.04,1.791,3.04c1.446,0,2.084-1.177,2.084-2.771v-6.153h3.58
	v11.67h-3.532V62.89c-0.564,0.956-1.814,1.74-3.457,1.74c-1.348,0-2.329-0.367-3.015-1.127c-0.736-0.834-1.029-1.643-1.029-4.217
	V52.666z"/>
<path fill="#002A3A" d="M212.491,64.336h-3.58v-5.883c0-1.79-0.071-3.041-1.838-3.041c-1.496,0-2.134,1.177-2.134,2.771v6.153
	h-3.579v-11.67h3.529v1.446c0.566-0.955,1.842-1.74,3.509-1.74c1.347,0,2.376,0.368,3.063,1.128
	c0.737,0.833,1.029,1.643,1.029,4.217V64.336z"/>
<path fill="#002A3A" d="M223.576,53.721v-6.056h3.58v16.671h-3.58v-1.078c-0.563,0.637-1.813,1.372-3.431,1.372
	c-3.312,0-5.421-2.451-5.421-6.128c0-3.556,2.184-6.13,5.442-6.13C221.859,52.372,222.988,53.01,223.576,53.721z M221.001,55.094
	c-1.667,0-2.646,1.323-2.646,3.408c0,2.133,0.908,3.432,2.646,3.432c1.596,0,2.675-1.397,2.675-3.432
	C223.676,56.466,222.597,55.094,221.001,55.094z"/>
<path fill="#002A3A" d="M240.104,61.419c0,0.735,0.1,0.98,0.613,0.98h0.171v2.06c-0.538,0.099-1.076,0.147-1.667,0.147
	c-1.03,0-1.984-0.196-2.23-1.055h-0.024c-0.538,0.589-1.396,1.078-3.285,1.078c-2.575,0-4.217-1.323-4.217-3.751
	c0-2.23,1.691-3.113,4.167-3.506l2.43-0.392c0.638-0.098,0.733-0.172,0.733-0.539v-0.196c0-0.883-0.491-1.373-1.717-1.373
	c-1.25,0-1.935,0.515-1.935,1.691l-3.312-0.024c-0.047-2.673,2.108-4.119,5.396-4.119c2.989,0,4.877,0.932,4.877,3.579V61.419z
	 M236.77,59.04c-0.271,0.099-0.488,0.222-1.738,0.466c-1.154,0.222-2.013,0.417-2.013,1.423c0,0.956,0.712,1.373,1.742,1.373
	c1.175,0,2.009-0.54,2.009-1.766V59.04z"/>
<path fill="#002A3A" d="M250.184,64.386c-0.491,0.098-1.3,0.195-2.158,0.195c-1.396,0-2.868-0.195-3.48-1.004
	c-0.441-0.589-0.491-1.227-0.491-2.404v-6.079h-2.255v-2.428h2.255v-3.972l3.58-0.711v4.683h2.55v2.428h-2.55v5.173
	c0,0.662,0.074,0.98,0.295,1.201c0.246,0.27,0.688,0.368,1.347,0.368c0.417,0,0.737-0.025,0.908-0.049V64.386z"/>
<path fill="#002A3A" d="M256.143,51.171h-3.602v-3.506h3.602V51.171z M256.143,64.336h-3.602v-11.67h3.602V64.336z"/>
<path fill="#002A3A" d="M264.652,52.372c3.68,0,6.205,2.23,6.205,6.179c0,3.946-2.525,6.079-6.205,6.079
	c-3.676,0-6.177-2.133-6.177-6.079C258.476,54.603,260.977,52.372,264.652,52.372z M264.652,61.909c1.643,0,2.575-1.274,2.575-3.407
	c0-2.183-0.908-3.434-2.575-3.434s-2.551,1.275-2.551,3.434C262.102,60.658,263.01,61.909,264.652,61.909z"/>
<path fill="#002A3A" d="M284.318,64.336h-3.58v-5.883c0-1.79-0.071-3.041-1.838-3.041c-1.496,0-2.134,1.177-2.134,2.771v6.153h-3.58
	v-11.67h3.53v1.446c0.566-0.955,1.841-1.74,3.508-1.74c1.348,0,2.377,0.368,3.064,1.128c0.736,0.833,1.029,1.643,1.029,4.217V64.336
	z"/>
<path fill="#04293C" d="M54.64,4.839H37.425c0.025,0.198,0.062,0.394,0.062,0.599c0,0.204-0.037,0.399-0.062,0.598H54.64
	c-0.024-0.198-0.062-0.394-0.062-0.598C54.577,5.232,54.615,5.037,54.64,4.839z"/>
<path fill="#04293C" d="M5.437,54.578c0.205,0,0.401,0.036,0.599,0.06V37.426c-0.197,0.023-0.394,0.061-0.599,0.061
	c-0.204,0-0.398-0.037-0.597-0.061v17.212C5.038,54.614,5.232,54.578,5.437,54.578z"/>
<path fill="#04293C" d="M33.099,27.552V10.363c-0.199,0.022-0.394,0.06-0.597,0.06c-0.206,0-0.401-0.037-0.6-0.06v17.188
	c-0.904,0.108-1.736,0.458-2.424,0.985c-0.105,0.08-0.209,0.164-0.305,0.252c-0.068,0.061-0.134,0.122-0.197,0.186
	c-0.771,0.771-1.288,1.79-1.424,2.928H10.363c0.023,0.198,0.059,0.394,0.059,0.598c0,0.205-0.035,0.4-0.059,0.599h17.189
	c0.283,2.382,2.246,4.247,4.672,4.38c0.092,0.005,0.184,0.008,0.277,0.008c0.012,0,0.022-0.001,0.037-0.001
	c0.155-0.002,0.311-0.01,0.466-0.025c0.002,0,0.004,0,0.007,0c1.073-0.109,2.046-0.56,2.809-1.24
	c0.011-0.01,0.021-0.019,0.032-0.029c0.029-0.025,0.057-0.053,0.084-0.079c0.029-0.028,0.061-0.057,0.089-0.086
	c0.013-0.011,0.021-0.022,0.034-0.034c0.044-0.046,0.089-0.092,0.131-0.139c0.009-0.009,0.016-0.018,0.023-0.025
	c0.791-0.883,1.273-2.049,1.273-3.327C37.487,29.949,35.571,27.848,33.099,27.552z"/>
<path fill="#5298BD" d="M5.437,27.515c-2.752,0-4.985,2.232-4.985,4.985c0,2.754,2.233,4.986,4.985,4.986
	c2.754,0,4.985-2.232,4.985-4.986C10.422,29.747,8.19,27.515,5.437,27.515L5.437,27.515z"/>
<path fill="#5298BD" d="M59.563,0.451c-2.753,0-4.986,2.232-4.986,4.986c0,2.753,2.233,4.985,4.986,4.985
	c2.756,0,4.985-2.232,4.985-4.985C64.549,2.684,62.319,0.451,59.563,0.451L59.563,0.451z"/>
<path fill="#C95B40" d="M32.502,0.451c-2.755,0-4.986,2.231-4.986,4.986c0,2.753,2.231,4.985,4.986,4.985
	c2.752,0,4.985-2.232,4.985-4.985C37.487,2.683,35.254,0.451,32.502,0.451L32.502,0.451z"/>
<path fill="#C95B40" d="M5.437,54.578c-2.752,0-4.985,2.232-4.985,4.985c0,2.754,2.233,4.986,4.985,4.986
	c2.754,0,4.985-2.232,4.985-4.986C10.422,56.811,8.19,54.578,5.437,54.578L5.437,54.578z"/>
<rect id="_x3C_Slice_x3E__2_" fill="none" width="287" height="65"/>
</svg>
